<svg width="29" height="29" viewBox="0 0 29 29" fill="none" xmlns="http://www.w3.org/2000/svg">
<path d="M14.4891 7.44971C12.5789 7.44971 10.7469 8.20737 9.39613 9.55601C8.0454 10.9046 7.28656 12.7338 7.28656 14.6411C7.28656 16.5483 8.0454 18.3775 9.39613 19.7261C10.7469 21.0748 12.5789 21.8324 14.4891 21.8324C16.3993 21.8324 18.2313 21.0748 19.5821 19.7261C20.9328 18.3775 21.6916 16.5483 21.6916 14.6411C21.6916 12.7338 20.9328 10.9046 19.5821 9.55601C18.2313 8.20737 16.3993 7.44971 14.4891 7.44971V7.44971ZM14.4891 19.3114C13.2481 19.3114 12.0579 18.8192 11.1804 17.943C10.3029 17.0669 9.80994 15.8786 9.80994 14.6395C9.80994 13.4004 10.3029 12.2121 11.1804 11.336C12.0579 10.4598 13.2481 9.96761 14.4891 9.96761C15.7301 9.96761 16.9202 10.4598 17.7978 11.336C18.6753 12.2121 19.1682 13.4004 19.1682 14.6395C19.1682 15.8786 18.6753 17.0669 17.7978 17.943C16.9202 18.8192 15.7301 19.3114 14.4891 19.3114V19.3114Z" fill="white"/>
<path d="M21.9768 8.86136C22.9041 8.86136 23.6559 8.11075 23.6559 7.18483C23.6559 6.25891 22.9041 5.5083 21.9768 5.5083C21.0494 5.5083 20.2976 6.25891 20.2976 7.18483C20.2976 8.11075 21.0494 8.86136 21.9768 8.86136Z" fill="white"/>
<path d="M27.782 5.48042C27.4214 4.55068 26.8703 3.70635 26.1641 3.00149C25.4579 2.29663 24.612 1.74676 23.6807 1.38708C22.5909 0.978609 21.4395 0.757743 20.2757 0.733884C18.7757 0.668565 18.3006 0.649902 14.4969 0.649902C10.6931 0.649902 10.2056 0.649902 8.71801 0.733884C7.55506 0.756523 6.40454 0.977435 5.31612 1.38708C4.38456 1.74634 3.53849 2.29606 2.83221 3.00098C2.12593 3.70589 1.57503 4.55044 1.21485 5.48042C0.80567 6.56848 0.584968 7.71814 0.562203 8.88014C0.495225 10.3763 0.474976 10.8506 0.474976 14.65C0.474976 18.4479 0.474976 18.9315 0.562203 20.4199C0.585568 21.5832 0.805195 22.731 1.21485 23.8212C1.57604 24.7508 2.12747 25.595 2.83392 26.2998C3.54038 27.0047 4.38631 27.5546 5.31768 27.9145C6.40403 28.3394 7.55503 28.5761 8.72113 28.6144C10.2211 28.6797 10.6962 28.6999 14.5 28.6999C18.3037 28.6999 18.7913 28.6999 20.2788 28.6144C21.4425 28.5907 22.5938 28.3704 23.6838 27.9627C24.6149 27.6022 25.4605 27.0519 26.1667 26.3468C26.8728 25.6418 27.424 24.7975 27.7851 23.8678C28.1948 22.7792 28.4144 21.6314 28.4377 20.4681C28.5047 18.972 28.525 18.4976 28.525 14.6982C28.525 10.8988 28.525 10.4167 28.4377 8.92835C28.4196 7.74992 28.1978 6.58346 27.782 5.48042V5.48042ZM25.8848 20.3048C25.8747 21.2011 25.7109 22.089 25.4003 22.93C25.1664 23.5348 24.8083 24.084 24.3491 24.5423C23.8898 25.0006 23.3395 25.3578 22.7337 25.591C21.9007 25.8996 21.0208 26.0632 20.1324 26.0747C18.6526 26.1431 18.2352 26.1602 14.4408 26.1602C10.6433 26.1602 10.2554 26.1602 8.74761 26.0747C7.85964 26.0638 6.98019 25.9002 6.1479 25.591C5.53994 25.3593 4.98746 25.0027 4.52623 24.5443C4.06499 24.0859 3.70527 23.536 3.47032 22.93C3.16416 22.0981 3.0004 21.2206 2.98589 20.3344C2.91891 18.8569 2.90334 18.4401 2.90334 14.6516C2.90334 10.8615 2.90334 10.4742 2.98589 8.96723C2.99596 8.07146 3.15981 7.18405 3.47032 6.34357C3.9454 5.1165 4.91893 4.15071 6.1479 3.68103C6.9806 3.37332 7.85979 3.20974 8.74761 3.19736C10.2289 3.13048 10.6448 3.11182 14.4408 3.11182C18.2368 3.11182 18.6262 3.11182 20.1324 3.19736C21.0209 3.20803 21.9009 3.37165 22.7337 3.68103C23.3395 3.91474 23.8897 4.27233 24.3489 4.73085C24.8081 5.18938 25.1663 5.7387 25.4003 6.34357C25.7065 7.17554 25.8703 8.05301 25.8848 8.93924C25.9518 10.4183 25.9689 10.8335 25.9689 14.6236C25.9689 18.4121 25.9689 18.8196 25.9019 20.3064H25.8848V20.3048Z" fill="white"/>
</svg>
