<svg width="23" height="22" viewBox="0 0 23 22" fill="none" xmlns="http://www.w3.org/2000/svg">
<path d="M11.4917 5.40137C10.0446 5.40137 8.65673 5.97535 7.63344 6.99705C6.61015 8.01874 6.03528 9.40446 6.03528 10.8494C6.03528 12.2943 6.61015 13.68 7.63344 14.7017C8.65673 15.7234 10.0446 16.2974 11.4917 16.2974C12.9389 16.2974 14.3268 15.7234 15.35 14.7017C16.3733 13.68 16.9482 12.2943 16.9482 10.8494C16.9482 9.40446 16.3733 8.01874 15.35 6.99705C14.3268 5.97535 12.9389 5.40137 11.4917 5.40137V5.40137ZM11.4917 14.3875C10.5516 14.3875 9.64996 14.0146 8.98518 13.3509C8.3204 12.6871 7.94693 11.7869 7.94693 10.8482C7.94693 9.9095 8.3204 9.00926 8.98518 8.34551C9.64996 7.68176 10.5516 7.30887 11.4917 7.30887C12.4319 7.30887 13.3335 7.68176 13.9983 8.34551C14.6631 9.00926 15.0366 9.9095 15.0366 10.8482C15.0366 11.7869 14.6631 12.6871 13.9983 13.3509C13.3335 14.0146 12.4319 14.3875 11.4917 14.3875V14.3875Z" fill="white"/>
<path d="M17.1642 6.47086C17.8668 6.47086 18.4363 5.90222 18.4363 5.20076C18.4363 4.49931 17.8668 3.93066 17.1642 3.93066C16.4617 3.93066 15.8922 4.49931 15.8922 5.20076C15.8922 5.90222 16.4617 6.47086 17.1642 6.47086Z" fill="white"/>
<path d="M21.5621 3.90949C21.2889 3.20514 20.8715 2.56549 20.3364 2.03151C19.8014 1.49752 19.1606 1.08095 18.4551 0.808466C17.6294 0.499021 16.7572 0.331698 15.8755 0.313623C14.7392 0.264138 14.3792 0.25 11.4976 0.25C8.61597 0.25 8.24662 0.25 7.11969 0.313623C6.23867 0.330773 5.36706 0.49813 4.54251 0.808466C3.83677 1.08063 3.19581 1.49709 2.66075 2.03112C2.12569 2.56515 1.70834 3.20495 1.43548 3.90949C1.1255 4.73377 0.958297 5.60472 0.941051 6.48503C0.89031 7.61846 0.874969 7.97781 0.874969 10.8561C0.874969 13.7333 0.874969 14.0997 0.941051 15.2273C0.958752 16.1086 1.12514 16.9781 1.43548 17.804C1.70911 18.5083 2.12686 19.1478 2.66205 19.6818C3.19724 20.2157 3.8381 20.6323 4.54369 20.905C5.36668 21.2269 6.23865 21.4062 7.12205 21.4352C8.25842 21.4847 8.61833 21.5 11.5 21.5C14.3816 21.5 14.751 21.5 15.8779 21.4352C16.7595 21.4173 17.6317 21.2504 18.4574 20.9415C19.1628 20.6684 19.8034 20.2515 20.3384 19.7174C20.8733 19.1832 21.2909 18.5436 21.5645 17.8393C21.8748 17.0146 22.0412 16.1451 22.0589 15.2638C22.1096 14.1304 22.125 13.771 22.125 10.8927C22.125 8.01433 22.125 7.64909 22.0589 6.52155C22.0452 5.6288 21.8771 4.74512 21.5621 3.90949V3.90949ZM20.1248 15.1401C20.1172 15.8191 19.9931 16.4918 19.7578 17.1289C19.5806 17.587 19.3093 18.0031 18.9614 18.3503C18.6135 18.6975 18.1966 18.9681 17.7376 19.1448C17.1066 19.3786 16.44 19.5025 15.767 19.5112C14.6459 19.563 14.3297 19.576 11.4551 19.576C8.57821 19.576 8.28439 19.576 7.14211 19.5112C6.46941 19.503 5.80316 19.379 5.17264 19.1448C4.71206 18.9692 4.29352 18.6991 3.9441 18.3518C3.59468 18.0045 3.32216 17.5879 3.14417 17.1289C2.91223 16.4986 2.78817 15.8339 2.77718 15.1625C2.72644 14.0432 2.71464 13.7274 2.71464 10.8573C2.71464 7.98606 2.71464 7.69268 2.77718 6.55101C2.78481 5.87239 2.90894 5.20011 3.14417 4.56339C3.50408 3.63379 4.2416 2.90213 5.17264 2.54631C5.80348 2.31319 6.46953 2.18927 7.14211 2.17989C8.26432 2.12923 8.57939 2.11509 11.4551 2.11509C14.3309 2.11509 14.6259 2.11509 15.767 2.17989C16.4401 2.18797 17.1067 2.31193 17.7376 2.54631C18.1966 2.72336 18.6134 2.99426 18.9613 3.34163C19.3092 3.689 19.5805 4.10515 19.7578 4.56339C19.9898 5.19366 20.1138 5.85842 20.1248 6.5298C20.1756 7.65027 20.1885 7.96485 20.1885 10.8361C20.1885 13.7062 20.1885 14.0149 20.1378 15.1413H20.1248V15.1401Z" fill="white"/>
</svg>
