<svg width="38" height="47" viewBox="0 0 38 47" fill="none" xmlns="http://www.w3.org/2000/svg">
<path d="M3.8 47C3.8 47 0 47 0 43.0833C0 39.1667 3.8 27.4167 19 27.4167C34.2 27.4167 38 39.1667 38 43.0833C38 47 34.2 47 34.2 47H3.8ZM19 23.5C22.0235 23.5 24.9231 22.2621 27.061 20.0585C29.1989 17.855 30.4 14.8663 30.4 11.75C30.4 8.63371 29.1989 5.64505 27.061 3.4415C24.9231 1.23794 22.0235 0 19 0C15.9765 0 13.0769 1.23794 10.939 3.4415C8.80107 5.64505 7.6 8.63371 7.6 11.75C7.6 14.8663 8.80107 17.855 10.939 20.0585C13.0769 22.2621 15.9765 23.5 19 23.5V23.5Z" fill="white"/>
</svg>
