<svg width="282" height="230" viewBox="0 0 282 230" fill="none" xmlns="http://www.w3.org/2000/svg">
<path d="M184.706 94.9981L167.406 112.536L150.816 94.9981V81.3214C150.816 81.3214 160.611 87.1987 166.695 87.1773C172.688 87.1561 184.706 80.7738 184.706 80.7738V94.9981Z" fill="#EBBA97"/>
<line x1="1.39161" y1="41.3232" x2="23.7994" y2="73.6322" stroke="black" stroke-width="2" stroke-linecap="round"/>
<path d="M16.4285 73.9286C15.7313 77.5492 19.1666 82.9643 19.1666 82.9643L32.5832 71.7381C32.5832 71.7381 30.9523 65.8982 27.9285 65.4405C26.4147 65.2114 25.2766 65.2386 23.8214 65.7143C21.776 66.383 20.7196 67.2366 19.1666 68.7262C17.5097 70.3155 16.8626 71.6741 16.4285 73.9286Z" fill="#FDC8A2"/>
<path d="M24.6428 67.0834C25.0705 67.9388 25.3103 68.4184 25.7381 69.2739" stroke="#A99A4C" stroke-width="0.3"/>
<path d="M22.4524 68.4524C22.8801 69.3078 23.1199 69.7874 23.5476 70.6429" stroke="#A99A4C" stroke-width="0.3"/>
<path d="M20.262 69.8214C20.6897 70.6768 20.9295 71.1565 21.3572 72.0119" stroke="#A99A4C" stroke-width="0.3"/>
<path d="M18.0714 71.1904C18.4991 72.0459 18.7389 72.5255 19.1666 73.3809" stroke="#A99A4C" stroke-width="0.3"/>
<path d="M184.583 86.0934L167.817 93.5449V93.7777H184.583V86.0934Z" fill="white"/>
<path d="M150.586 86.0934L167.351 93.5449V93.7777H150.586V86.0934Z" fill="white"/>
<path d="M184.117 94.2435H166.886H150.819V124.282L150.12 199.03V214.398L178.063 215.097L179.227 190.647L181.556 153.622L183.419 122.419L184.117 94.2435Z" fill="#0C252B" stroke="#0C252B" stroke-width="3.40176"/>
<path d="M149.654 165.498C149.888 133.757 151.051 84.2305 151.051 84.2305H132.888C132.888 84.2305 116.993 90.8055 107.507 96.3392C101.918 99.5992 98.2917 101.061 92.3711 103.791C87.8652 105.868 84.9027 107.301 80.0295 106.818C75.4824 106.367 72.7575 104.055 68.3866 101.695C60.1611 97.2527 56.4245 93.3011 49.2922 87.2577C42.3231 81.3525 32.2935 71.1904 32.2935 71.1904L19.1667 82.8639C19.1667 82.8639 28.3775 93.6875 34.0697 100.794C39.1755 107.168 41.27 111.389 46.8769 117.327C50.9449 121.635 53.1147 124.312 58.0477 127.595C62.8575 130.796 65.9949 131.968 71.4644 133.829C78.6758 136.284 83.0302 136.948 90.631 137.452C102.373 138.232 120.547 133.829 120.547 133.829L107.041 215.796L149.654 226.274C149.654 226.274 149.48 189.232 149.654 165.498Z" fill="#1D3441"/>
<path d="M164.776 97.2256L166.272 94.4161C166.584 93.8302 167.417 93.8115 167.755 94.3827L169.416 97.1912C169.578 97.4653 169.574 97.8071 169.404 98.0767L167.742 100.721C167.4 101.266 166.599 101.248 166.282 100.687L164.787 98.0439C164.644 97.7908 164.64 97.4822 164.776 97.2256Z" fill="white"/>
<path d="M184.35 108.215C184.688 98.1266 184.35 82.3677 184.35 82.3677C184.35 82.3677 198.815 83.777 203.91 85.8606C209.006 87.9441 211.093 90.11 216.019 93.0792C221.105 96.1447 224.144 97.8277 229.452 100.488C233.525 102.529 235.971 104.234 240.003 106.352C247.114 110.087 250.77 112.497 257.701 116.831C262.964 120.122 266.655 121.691 271.206 125.912C274.862 129.302 277.08 131.378 279.124 135.925C281.386 140.957 281.784 144.408 281.219 149.897C280.739 154.559 279.635 157.137 277.494 161.307C275.557 165.078 274.103 166.859 271.206 170.155C267.279 174.626 264.021 176.506 259.331 180.168C255.188 183.403 243.496 187.62 243.496 187.62L227.196 161.307C227.196 161.307 244.792 147.956 244.428 144.308C244.064 140.66 243.331 139.146 240.952 136.357C238.23 133.165 235.33 130.694 231.643 128.69C225.497 125.35 224.769 124.823 218.115 122.667C215.785 121.912 209.965 121.022 209.965 121.022C209.965 121.022 214.206 133.942 216.019 142.445C217.001 147.051 217.37 149.671 218.115 154.321C219.304 161.75 219.641 165.963 220.676 173.415C221.56 179.784 222.318 183.322 223.005 189.715C223.667 195.88 223.968 199.353 224.169 205.55C224.328 210.458 224.169 218.124 224.169 218.124L177.132 230C177.132 230 177.892 213.39 178.529 202.756C179.499 186.555 180.629 177.51 181.556 161.307C182.242 149.31 182.289 142.567 182.953 130.569C183.436 121.836 184.058 116.957 184.35 108.215Z" fill="#1D3441"/>
<path d="M216.252 167.128L227.196 161.307L243.962 187.387L220.443 195.77L216.252 167.128Z" fill="#1D3441"/>
<path d="M177.298 86.3701C174.8 87.561 173.223 87.9332 170.479 88.3258C167.635 88.7326 165.926 88.9443 163.122 88.3258C161.216 87.9056 160.241 87.3935 158.456 86.5479C156.589 85.6634 155.459 85.0933 153.79 83.8811C151.952 82.5459 151.11 81.5369 149.663 79.792C148.318 78.1702 147.553 77.2282 146.612 75.3473C145.599 73.3208 144.817 72.0975 144.818 69.836C144.818 68.4137 144.818 62.6844 144.818 58.102C144.818 54.6305 144.79 52.6841 144.818 49.2127L144.82 48.8976C144.896 39.5351 145.003 26.2663 145.535 25.2115C147.172 21.9701 149.752 21.2221 153.072 19.7001C156.653 18.0587 159.011 17.8989 162.942 17.5667C165.526 17.3483 167.015 17.2061 169.582 17.5667C172.873 18.0289 174.658 18.8134 177.657 20.2335C180.499 21.579 182.009 22.5611 184.477 24.5003C187.117 26.575 188.849 27.6794 190.578 30.5451C191.114 31.434 190.578 41.4891 190.578 48.5016C190.578 56.2777 191.296 61.6578 190.578 68.4137C190.33 70.743 190.224 72.1156 189.322 74.2806C188.432 76.4169 187.527 77.4834 186.092 79.2587C184.636 81.0602 183.792 81.9173 181.964 83.3477C180.256 84.6845 179.26 85.435 177.298 86.3701Z" fill="#FDC8A2"/>
<path d="M189.41 47.083L189.615 57.9864C189.615 57.9864 191.917 56.2308 192.484 54.6163C192.998 53.1501 193.024 52.1087 192.484 50.6514C192.131 49.7013 191.74 49.227 191.049 48.4707C190.486 47.8542 189.41 47.083 189.41 47.083Z" fill="#FDB683"/>
<path d="M144.805 47.083L144.6 57.9864C144.6 57.9864 142.298 56.2308 141.732 54.6163C141.217 53.1501 141.191 52.1087 141.732 50.6514C142.084 49.7013 142.475 49.227 143.166 48.4707C143.729 47.8542 144.805 47.083 144.805 47.083Z" fill="#FDB683"/>
<path d="M163.804 46.8994C164.317 46.2383 165.245 45.8517 166.325 45.639C167.11 45.4844 167.58 45.54 168.373 45.639C169.803 45.8172 170.906 46.0044 171.84 46.8994" stroke="#0E171E" stroke-width="2.30168"/>
<path d="M148.117 43.8342C147.978 44.2493 148.091 45.7549 148.117 46.9852C148.159 49.0014 148.196 51.9722 148.405 52.2844C148.614 52.5967 148.913 52.5709 149.268 52.5709H163.085C163.412 52.5709 163.804 52.4674 163.804 52.1412C163.804 51.1387 163.804 44.6936 163.804 43.8342C163.804 43.4387 163.482 43.1181 163.085 43.1181H148.692C148.465 43.1181 148.261 43.4046 148.117 43.8342Z" fill="#ECE1D5" stroke="#0E171E" stroke-width="2.30168"/>
<path d="M187.685 43.8342C187.824 44.2493 187.711 45.7549 187.685 46.9852C187.642 49.0014 187.606 51.9722 187.397 52.2844C187.188 52.5967 186.889 52.5709 186.533 52.5709H172.717C172.389 52.5709 171.997 52.4674 171.997 52.1412C171.997 51.1387 171.997 44.6936 171.997 43.8342C171.997 43.4387 172.319 43.1181 172.717 43.1181H187.109C187.336 43.1181 187.541 43.4046 187.685 43.8342Z" fill="#ECE1D5" stroke="#0E171E" stroke-width="2.30168"/>
<path d="M190.51 38.4098C190.678 41.1143 190.51 45.3484 190.51 45.3484C190.51 45.3484 193.695 38.6426 194.24 34.313C194.507 32.1938 194.613 30.9957 194.671 28.8606C194.759 25.6075 194.646 23.7674 194.24 20.5385C193.992 18.5642 194.049 17.3904 193.379 15.5166C192.558 13.2176 191.596 12.1205 190.079 10.2077C188.553 8.28283 187.628 7.19099 185.631 5.7597C183.696 4.37265 182.382 3.93453 180.179 3.03351C177.521 1.94672 175.951 1.50319 173.148 0.88125C171.098 0.426323 169.938 0.105388 167.839 0.0203476C165.519 -0.0736935 164.187 0.166377 161.934 0.572396L161.813 0.594282L161.752 0.60535C159.448 1.02033 158.105 1.26235 155.93 2.1726C154.032 2.96686 152.997 3.53721 151.339 4.75531C148.911 6.53887 147.653 7.86175 146.03 10.3512C145.072 11.8205 144.75 12.6298 144.021 14.2252C143.018 16.4208 142.287 17.6168 141.725 19.9646C141.331 21.614 141.253 22.5762 141.151 24.2691C141.067 25.6674 141.151 26.4553 141.151 27.8562C141.151 28.9769 141.113 29.6058 141.151 30.7259C141.215 32.5815 141.294 33.6205 141.582 35.4608C141.816 36.961 142.044 37.8242 142.427 39.2763L142.443 39.3349C142.836 40.8255 143.269 41.5956 143.734 43.0655C144.226 44.6211 144.882 47.083 144.882 47.083C144.882 47.083 145.158 44.1109 145.312 42.2046C145.502 39.8528 145.599 38.0435 145.743 36.1782C145.886 34.313 146.483 32.1607 146.747 30.7259C147.011 29.291 148.039 27.8992 148.469 27.8562C149.904 27.7127 151.53 27.8986 153.491 27.8562C157.646 27.7663 159.984 27.649 164.109 27.1388C166.303 26.8673 167.522 26.8616 169.705 26.2779C172.128 25.6295 174.44 24.8915 175.731 23.8386C176.468 23.2377 176.879 22.4038 177.453 22.1168C178.004 21.8412 178.418 22.0514 179.031 22.1168C180.728 22.2981 181.581 22.9673 183.049 23.8386C184.659 24.7947 185.553 25.4362 186.779 26.8518C187.899 28.1449 188.343 29.0362 189.075 30.5824C189.81 32.136 189.871 33.0574 190.153 34.6927C190.401 36.1298 190.419 36.9544 190.51 38.4098Z" fill="#46332C"/>
<path d="M180.036 18.9602H194.097C194.097 18.9602 193.575 15.7385 192.662 13.7948C191.623 11.5836 190.514 10.0713 188.788 8.34238C186.625 6.17555 185.185 5.46176 182.475 4.03787C180.227 2.85721 178.6 2.30373 176.161 1.59864C171.941 0.378476 169.931 -0.0706335 165.544 0.163819C162.655 0.31818 160.377 0.628274 157.652 1.59864C154.547 2.70447 152.551 3.75886 150.047 5.90317C147.877 7.76171 146.294 10.1109 145.599 11.499C145.026 12.6469 144.233 13.6432 143.878 14.9426C143.168 17.5399 142.299 20.8255 142.299 20.8255C142.299 20.8255 145.169 15.947 146.03 14.3687C146.694 13.1508 147.895 11.8695 148.469 11.786C148.9 11.7234 150.045 12.8293 151.195 12.9339C152.774 13.0773 180.388 12.7191 180.896 12.9339C181.405 13.1486 181.751 13.1703 182.188 13.5078C182.624 13.8453 180.036 18.9602 180.036 18.9602Z" fill="#4E3C32"/>
<path d="M147.608 12.6025C146.486 14.0729 144.882 16.4766 144.882 16.4766C144.882 16.4766 146.412 12.6237 147.895 10.4503C148.66 9.32983 149.087 8.68147 150.047 7.72409C150.866 6.90877 151.405 6.53334 152.343 5.8588C153.568 4.9778 154.273 4.48073 155.643 3.85003C157.189 3.13879 158.149 2.95169 159.804 2.55868C161.462 2.16503 162.411 1.9854 164.109 1.84126C165.896 1.68961 166.911 1.73027 168.7 1.84126C170.504 1.95311 171.507 2.08768 173.292 2.4152C175.151 2.75632 176.237 2.95643 178.027 3.56307C179.121 3.93379 179.687 4.20995 180.753 4.71093C182.319 5.44656 183.292 5.8219 184.771 6.71971C185.834 7.36545 186.42 7.7626 187.353 8.58499C188.275 9.39732 188.744 9.90976 189.506 10.8807C190.197 11.7625 190.599 12.3095 191.084 13.32C191.583 14.3615 191.801 16.1896 191.801 16.1896C191.801 16.1896 190.056 13.4188 188.645 11.8851C187.516 10.6594 186.808 10.0314 185.488 9.01545C184.626 8.352 184.129 7.99035 183.192 7.43712C181.311 6.32591 179.605 5.8588 178.027 5.28487L177.966 5.26262C177.003 4.91248 175.766 4.46262 174.727 4.28048C172.583 3.90493 171.3 3.4482 169.131 3.2761C167.79 3.16974 167.032 3.09837 165.687 3.13261C163.835 3.17976 162.773 3.22074 160.952 3.56307C159.28 3.87748 158.33 4.1286 156.791 4.85442C155.54 5.44479 154.91 5.92301 153.778 6.71971C152.605 7.5459 151.992 8.0749 150.908 9.01545C150.279 9.56136 149.906 9.84877 149.33 10.4503C148.585 11.2275 148.261 11.747 147.608 12.6025Z" fill="url(#paint0_linear_975_1120)"/>
<defs>
<linearGradient id="paint0_linear_975_1120" x1="191.371" y1="14.7992" x2="146.604" y2="14.7992" gradientUnits="userSpaceOnUse">
<stop stop-color="#9E9691"/>
<stop offset="1" stop-color="#867061"/>
<stop offset="1" stop-color="#DED9D5"/>
</linearGradient>
</defs>
</svg>
