<svg width="26" height="22" viewBox="0 0 26 22" fill="none" xmlns="http://www.w3.org/2000/svg">
<path d="M24.8789 2.72203C24.3234 2.97373 23.7468 3.17229 23.1551 3.31605C23.8071 2.68298 24.2973 1.89115 24.5738 1.00732C24.6527 0.755008 24.3846 0.536823 24.1616 0.671919C23.3385 1.17082 22.4519 1.54509 21.5263 1.78446C21.4726 1.79835 21.4172 1.80538 21.3616 1.80538C21.193 1.80538 21.0291 1.74142 20.9002 1.62532C19.9155 0.73844 18.6489 0.25 17.334 0.25C16.765 0.25 16.1905 0.340625 15.6265 0.519383C13.8788 1.07328 12.5304 2.54639 12.1073 4.36387C11.9486 5.04558 11.9056 5.72791 11.9795 6.39187C11.988 6.46817 11.9527 6.52143 11.9309 6.5464C11.8927 6.59019 11.8385 6.61529 11.7822 6.61529C11.776 6.61529 11.7695 6.61498 11.7631 6.61436C7.9376 6.25117 4.48793 4.36786 2.04952 1.3114C1.92517 1.1555 1.68673 1.17462 1.58762 1.34834C1.11012 2.18545 0.857773 3.14289 0.857773 4.11716C0.857773 5.61026 1.44481 7.01734 2.46448 8.04311C2.03568 7.93922 1.62066 7.7756 1.23513 7.55679C1.04862 7.45091 0.819129 7.587 0.816508 7.805C0.789811 10.0231 2.06067 11.9968 3.96446 12.8855C3.92613 12.8865 3.88779 12.8869 3.84939 12.8869C3.54761 12.8869 3.24205 12.8571 2.94131 12.7984C2.73127 12.7574 2.55481 12.961 2.62003 13.1691C3.23797 15.1405 4.89905 16.5936 6.88684 16.9235C5.23709 18.0552 3.31593 18.6521 1.31638 18.6521L0.693018 18.6518C0.500956 18.6518 0.338518 18.7797 0.289573 18.9698C0.241359 19.157 0.330167 19.3545 0.493947 19.4519C2.74712 20.7918 5.31719 21.5 7.92742 21.5C10.2122 21.5 12.3495 21.0367 14.2798 20.1229C16.0495 19.2853 17.6133 18.0878 18.9278 16.5639C20.1523 15.1443 21.1099 13.5055 21.7738 11.6931C22.4066 9.96554 22.7412 8.12215 22.7412 6.36222V6.27839C22.7411 5.9958 22.8662 5.72991 23.0844 5.54891C23.9124 4.8619 24.6335 4.05319 25.2275 3.14526C25.3843 2.90553 25.137 2.60506 24.8789 2.72203Z" fill="white"/>
</svg>
