<svg width="34" height="29" viewBox="0 0 34 29" fill="none" xmlns="http://www.w3.org/2000/svg">
<path d="M33.0001 3.91299C32.2669 4.24522 31.5058 4.50733 30.7248 4.69708C31.5854 3.86144 32.2324 2.81622 32.5974 1.64957C32.7016 1.31651 32.3476 1.02851 32.0533 1.20684C30.9668 1.86539 29.7965 2.35943 28.5747 2.67538C28.5038 2.69372 28.4307 2.70301 28.3573 2.70301C28.1348 2.70301 27.9184 2.61857 27.7483 2.46532C26.4484 1.29464 24.7766 0.649902 23.0409 0.649902C22.2898 0.649902 21.5315 0.769527 20.7869 1.00549C18.4801 1.73664 16.7001 3.68114 16.1416 6.08021C15.9321 6.98007 15.8754 7.88075 15.9729 8.75718C15.9841 8.85789 15.9375 8.92818 15.9088 8.96115C15.8583 9.01895 15.7868 9.05208 15.7126 9.05208C15.7043 9.05208 15.6957 9.05167 15.6873 9.05085C10.6376 8.57145 6.08406 6.08547 2.86536 2.05095C2.70123 1.84516 2.38648 1.8704 2.25565 2.09971C1.62535 3.20469 1.29226 4.46852 1.29226 5.75455C1.29226 7.72544 2.06714 9.58279 3.41311 10.9368C2.8471 10.7997 2.29926 10.5837 1.79037 10.2949C1.54417 10.1551 1.24125 10.3347 1.23779 10.6225C1.20255 13.5504 2.88008 16.1557 5.39309 17.3288C5.34248 17.33 5.29188 17.3306 5.24119 17.3306C4.84284 17.3306 4.43951 17.2913 4.04253 17.2138C3.76528 17.1597 3.53235 17.4285 3.61844 17.7031C4.43412 20.3054 6.62674 22.2235 9.25062 22.659C7.07296 24.1528 4.53702 24.9407 1.89762 24.9407L1.07478 24.9402C0.82126 24.9402 0.606841 25.1091 0.542234 25.36C0.478592 25.6072 0.595818 25.8679 0.812007 25.9964C3.7862 27.7651 7.17868 28.6999 10.6242 28.6999C13.6401 28.6999 16.4613 28.0883 19.0094 26.8822C21.3453 25.7765 23.4095 24.1958 25.1447 22.1843C26.7611 20.3104 28.025 18.1472 28.9014 15.7549C29.7368 13.4744 30.1783 11.0411 30.1783 8.71804V8.60738C30.1782 8.23436 30.3433 7.88338 30.6314 7.64446C31.7244 6.73761 32.6762 5.67011 33.4603 4.47165C33.6673 4.1552 33.3408 3.75858 33.0001 3.91299Z" fill="white"/>
</svg>
